<svg xmlns="http://www.w3.org/2000/svg" viewBox="0 0 1280 720" width="1280" height="720">
<rect width="1280" height="720" fill="#FFFFFF"/>
<rect x="36" y="20" width="1208" height="58" rx="12" ry="12" fill="#FFFFFF" stroke="#CBD5E1" stroke-width="1.5"/>
<text x="58" y="55.0" font-family="Arial,Helvetica,sans-serif" font-size="17" fill="#1F2937" text-anchor="start" font-weight="bold">Interface &amp; SDK</text>
<rect x="444" y="30" width="380" height="38" rx="9" ry="9" fill="#E8F0FE" stroke="#C3D6FB" stroke-width="1.2"/>
<text x="460" y="47.0" font-family="Arial,Helvetica,sans-serif" font-size="10.5" fill="#1A56DB" text-anchor="start" font-weight="bold">KUBEFLOW</text>
<text x="460" y="64.0" font-family="Arial,Helvetica,sans-serif" font-size="16" fill="#1F2937" text-anchor="start" font-weight="bold">Central Dashboard · SDK</text>
<rect x="842" y="30" width="380" height="38" rx="9" ry="9" fill="#FDF1E3" stroke="#F1D2A6" stroke-width="1.2"/>
<text x="858" y="47.0" font-family="Arial,Helvetica,sans-serif" font-size="10.5" fill="#B45309" text-anchor="start" font-weight="bold">SAGEMAKER</text>
<text x="858" y="64.0" font-family="Arial,Helvetica,sans-serif" font-size="16" fill="#1F2937" text-anchor="start" font-weight="bold">Studio · Python SDK</text>
<rect x="36" y="90" width="1208" height="58" rx="12" ry="12" fill="#FFFFFF" stroke="#CBD5E1" stroke-width="1.5"/>
<text x="58" y="125.0" font-family="Arial,Helvetica,sans-serif" font-size="17" fill="#1F2937" text-anchor="start" font-weight="bold">Orchestrate the steps</text>
<rect x="444" y="100" width="380" height="38" rx="9" ry="9" fill="#E8F0FE" stroke="#C3D6FB" stroke-width="1.2"/>
<text x="460" y="117.0" font-family="Arial,Helvetica,sans-serif" font-size="10.5" fill="#1A56DB" text-anchor="start" font-weight="bold">KUBEFLOW</text>
<text x="460" y="134.0" font-family="Arial,Helvetica,sans-serif" font-size="16" fill="#1F2937" text-anchor="start" font-weight="bold">Kubeflow Pipelines</text>
<rect x="842" y="100" width="380" height="38" rx="9" ry="9" fill="#FDF1E3" stroke="#F1D2A6" stroke-width="1.2"/>
<text x="858" y="117.0" font-family="Arial,Helvetica,sans-serif" font-size="10.5" fill="#B45309" text-anchor="start" font-weight="bold">SAGEMAKER</text>
<text x="858" y="134.0" font-family="Arial,Helvetica,sans-serif" font-size="16" fill="#1F2937" text-anchor="start" font-weight="bold">SageMaker Pipelines</text>
<line x1="640.0" y1="148" x2="640.0" y2="159" stroke="#64748B" stroke-width="2"/>
<path d="M 635.0 159 L 645.0 159 L 640.0 168 Z" fill="#64748B"/>
<rect x="36" y="168" width="228" height="210" rx="12" ry="12" fill="#F1F5F9" stroke="#CBD5E1" stroke-width="1.5"/>
<rect x="36" y="168" width="228" height="46" rx="12" ry="12" fill="#334155" stroke="none" stroke-width="1"/>
<rect x="36" y="198" width="228" height="16" rx="0" ry="0" fill="#334155" stroke="none" stroke-width="1"/>
<text x="150.0" y="198" font-family="Arial,Helvetica,sans-serif" font-size="18" fill="#FFFFFF" text-anchor="middle" font-weight="bold">Data Prep</text>
<text x="52" y="254" font-family="Arial,Helvetica,sans-serif" font-size="10.5" fill="#1A56DB" text-anchor="start" font-weight="bold">KUBEFLOW</text>
<text x="52" y="276" font-family="Arial,Helvetica,sans-serif" font-size="16" fill="#1F2937" text-anchor="start" font-weight="bold">Spark Operator</text>
<line x1="50" y1="294" x2="250" y2="294" stroke="#CBD5E1" stroke-width="1"/>
<text x="52" y="318" font-family="Arial,Helvetica,sans-serif" font-size="10.5" fill="#B45309" text-anchor="start" font-weight="bold">SAGEMAKER</text>
<text x="52" y="340" font-family="Arial,Helvetica,sans-serif" font-size="16" fill="#1F2937" text-anchor="start" font-weight="bold">Glue / EMR</text>
<line x1="266" y1="273.0" x2="274" y2="273.0" stroke="#64748B" stroke-width="2.5"/>
<path d="M 274 268.0 L 282 273.0 L 274 278.0 Z" fill="#64748B"/>
<rect x="281" y="168" width="228" height="210" rx="12" ry="12" fill="#F1F5F9" stroke="#CBD5E1" stroke-width="1.5"/>
<rect x="281" y="168" width="228" height="46" rx="12" ry="12" fill="#334155" stroke="none" stroke-width="1"/>
<rect x="281" y="198" width="228" height="16" rx="0" ry="0" fill="#334155" stroke="none" stroke-width="1"/>
<text x="395.0" y="198" font-family="Arial,Helvetica,sans-serif" font-size="18" fill="#FFFFFF" text-anchor="middle" font-weight="bold">Model Dev</text>
<text x="297" y="254" font-family="Arial,Helvetica,sans-serif" font-size="10.5" fill="#1A56DB" text-anchor="start" font-weight="bold">KUBEFLOW</text>
<text x="297" y="276" font-family="Arial,Helvetica,sans-serif" font-size="16" fill="#1F2937" text-anchor="start" font-weight="bold">Notebooks</text>
<line x1="295" y1="294" x2="495" y2="294" stroke="#CBD5E1" stroke-width="1"/>
<text x="297" y="318" font-family="Arial,Helvetica,sans-serif" font-size="10.5" fill="#B45309" text-anchor="start" font-weight="bold">SAGEMAKER</text>
<text x="297" y="340" font-family="Arial,Helvetica,sans-serif" font-size="16" fill="#1F2937" text-anchor="start" font-weight="bold">Studio Notebooks</text>
<line x1="511" y1="273.0" x2="519" y2="273.0" stroke="#64748B" stroke-width="2.5"/>
<path d="M 519 268.0 L 527 273.0 L 519 278.0 Z" fill="#64748B"/>
<rect x="526" y="168" width="228" height="210" rx="12" ry="12" fill="#F1F5F9" stroke="#CBD5E1" stroke-width="1.5"/>
<rect x="526" y="168" width="228" height="46" rx="12" ry="12" fill="#334155" stroke="none" stroke-width="1"/>
<rect x="526" y="198" width="228" height="16" rx="0" ry="0" fill="#334155" stroke="none" stroke-width="1"/>
<text x="640.0" y="198" font-family="Arial,Helvetica,sans-serif" font-size="18" fill="#FFFFFF" text-anchor="middle" font-weight="bold">Training</text>
<text x="542" y="254" font-family="Arial,Helvetica,sans-serif" font-size="10.5" fill="#1A56DB" text-anchor="start" font-weight="bold">KUBEFLOW</text>
<text x="542" y="276" font-family="Arial,Helvetica,sans-serif" font-size="16" fill="#1F2937" text-anchor="start" font-weight="bold">Trainer</text>
<line x1="540" y1="294" x2="740" y2="294" stroke="#CBD5E1" stroke-width="1"/>
<text x="542" y="318" font-family="Arial,Helvetica,sans-serif" font-size="10.5" fill="#B45309" text-anchor="start" font-weight="bold">SAGEMAKER</text>
<text x="542" y="340" font-family="Arial,Helvetica,sans-serif" font-size="16" fill="#1F2937" text-anchor="start" font-weight="bold">Training Jobs</text>
<line x1="756" y1="273.0" x2="764" y2="273.0" stroke="#64748B" stroke-width="2.5"/>
<path d="M 764 268.0 L 772 273.0 L 764 278.0 Z" fill="#64748B"/>
<rect x="771" y="168" width="228" height="210" rx="12" ry="12" fill="#F1F5F9" stroke="#CBD5E1" stroke-width="1.5"/>
<rect x="771" y="168" width="228" height="46" rx="12" ry="12" fill="#334155" stroke="none" stroke-width="1"/>
<rect x="771" y="198" width="228" height="16" rx="0" ry="0" fill="#334155" stroke="none" stroke-width="1"/>
<text x="885.0" y="198" font-family="Arial,Helvetica,sans-serif" font-size="18" fill="#FFFFFF" text-anchor="middle" font-weight="bold">Optimize</text>
<text x="787" y="254" font-family="Arial,Helvetica,sans-serif" font-size="10.5" fill="#1A56DB" text-anchor="start" font-weight="bold">KUBEFLOW</text>
<text x="787" y="276" font-family="Arial,Helvetica,sans-serif" font-size="16" fill="#1F2937" text-anchor="start" font-weight="bold">Katib</text>
<line x1="785" y1="294" x2="985" y2="294" stroke="#CBD5E1" stroke-width="1"/>
<text x="787" y="318" font-family="Arial,Helvetica,sans-serif" font-size="10.5" fill="#B45309" text-anchor="start" font-weight="bold">SAGEMAKER</text>
<text x="787" y="340" font-family="Arial,Helvetica,sans-serif" font-size="16" fill="#1F2937" text-anchor="start" font-weight="bold">Automatic Tuning</text>
<line x1="1001" y1="273.0" x2="1009" y2="273.0" stroke="#64748B" stroke-width="2.5"/>
<path d="M 1009 268.0 L 1017 273.0 L 1009 278.0 Z" fill="#64748B"/>
<rect x="1016" y="168" width="228" height="210" rx="12" ry="12" fill="#F1F5F9" stroke="#CBD5E1" stroke-width="1.5"/>
<rect x="1016" y="168" width="228" height="46" rx="12" ry="12" fill="#334155" stroke="none" stroke-width="1"/>
<rect x="1016" y="198" width="228" height="16" rx="0" ry="0" fill="#334155" stroke="none" stroke-width="1"/>
<text x="1130.0" y="198" font-family="Arial,Helvetica,sans-serif" font-size="18" fill="#FFFFFF" text-anchor="middle" font-weight="bold">Serving</text>
<text x="1032" y="254" font-family="Arial,Helvetica,sans-serif" font-size="10.5" fill="#1A56DB" text-anchor="start" font-weight="bold">KUBEFLOW</text>
<text x="1032" y="276" font-family="Arial,Helvetica,sans-serif" font-size="16" fill="#1F2937" text-anchor="start" font-weight="bold">KServe *</text>
<line x1="1030" y1="294" x2="1230" y2="294" stroke="#CBD5E1" stroke-width="1"/>
<text x="1032" y="318" font-family="Arial,Helvetica,sans-serif" font-size="10.5" fill="#B45309" text-anchor="start" font-weight="bold">SAGEMAKER</text>
<text x="1032" y="340" font-family="Arial,Helvetica,sans-serif" font-size="16" fill="#1F2937" text-anchor="start" font-weight="bold">Endpoints</text>
<line x1="640.0" y1="378" x2="640.0" y2="389" stroke="#64748B" stroke-width="2"/>
<path d="M 635.0 389 L 645.0 389 L 640.0 398 Z" fill="#64748B"/>
<rect x="36" y="398" width="1208" height="58" rx="12" ry="12" fill="#FFFFFF" stroke="#CBD5E1" stroke-width="1.5"/>
<text x="58" y="433.0" font-family="Arial,Helvetica,sans-serif" font-size="17" fill="#1F2937" text-anchor="start" font-weight="bold">Metadata + artifacts</text>
<rect x="444" y="408" width="380" height="38" rx="9" ry="9" fill="#E8F0FE" stroke="#C3D6FB" stroke-width="1.2"/>
<text x="460" y="425.0" font-family="Arial,Helvetica,sans-serif" font-size="10.5" fill="#1A56DB" text-anchor="start" font-weight="bold">KUBEFLOW</text>
<text x="460" y="442.0" font-family="Arial,Helvetica,sans-serif" font-size="16" fill="#1F2937" text-anchor="start" font-weight="bold">Kubeflow Hub</text>
<rect x="842" y="408" width="380" height="38" rx="9" ry="9" fill="#FDF1E3" stroke="#F1D2A6" stroke-width="1.2"/>
<text x="858" y="425.0" font-family="Arial,Helvetica,sans-serif" font-size="10.5" fill="#B45309" text-anchor="start" font-weight="bold">SAGEMAKER</text>
<text x="858" y="442.0" font-family="Arial,Helvetica,sans-serif" font-size="16" fill="#1F2937" text-anchor="start" font-weight="bold">Model Registry</text>
<rect x="36" y="468" width="1208" height="58" rx="12" ry="12" fill="#FFFFFF" stroke="#CBD5E1" stroke-width="1.5"/>
<text x="58" y="503.0" font-family="Arial,Helvetica,sans-serif" font-size="17" fill="#1F2937" text-anchor="start" font-weight="bold">Run everything</text>
<rect x="444" y="478" width="380" height="38" rx="9" ry="9" fill="#E8F0FE" stroke="#C3D6FB" stroke-width="1.2"/>
<text x="460" y="495.0" font-family="Arial,Helvetica,sans-serif" font-size="10.5" fill="#1A56DB" text-anchor="start" font-weight="bold">KUBEFLOW</text>
<text x="460" y="512.0" font-family="Arial,Helvetica,sans-serif" font-size="16" fill="#1F2937" text-anchor="start" font-weight="bold">Kubernetes</text>
<rect x="842" y="478" width="380" height="38" rx="9" ry="9" fill="#FDF1E3" stroke="#F1D2A6" stroke-width="1.2"/>
<text x="858" y="495.0" font-family="Arial,Helvetica,sans-serif" font-size="10.5" fill="#B45309" text-anchor="start" font-weight="bold">SAGEMAKER</text>
<text x="858" y="512.0" font-family="Arial,Helvetica,sans-serif" font-size="16" fill="#1F2937" text-anchor="start" font-weight="bold">Amazon EKS / EC2</text>
<rect x="36" y="544" width="16" height="16" rx="3" fill="#E8F0FE" stroke="#C3D6FB"/>
<text x="60" y="557" font-family="Arial,Helvetica,sans-serif" font-size="14" fill="#64748B" text-anchor="start" font-weight="normal">Kubeflow — open, on your Kubernetes</text>
<rect x="376" y="544" width="16" height="16" rx="3" fill="#FDF1E3" stroke="#F1D2A6"/>
<text x="400" y="557" font-family="Arial,Helvetica,sans-serif" font-size="14" fill="#64748B" text-anchor="start" font-weight="normal">Amazon SageMaker — fully managed</text>
<text x="1244" y="557" font-family="Arial,Helvetica,sans-serif" font-size="14" fill="#64748B" text-anchor="end" font-weight="normal">* KServe is a Kubeflow ecosystem project</text>
</svg>
